Genre:Action/Comedy/Romance/Thriller 
Language:English
IMDb:http://www.imdb.com/title/tt1103153/ 
Encoder: Tony2
...........................................
General
Complete name : Killers 2010 CAM H264 FEEL-FREE
Format : MPEG-4
Format profile : Base Media
Codec ID : isom
File size : 611 MiB
Duration : 1h 32mn
Overall bit rate : 921 Kbps
..............................................
Video
ID : 1
Format : AVC
Format/Info : Advanced Video Codec
Format profile : Main@L1.3
Format settings, CABAC : Yes
Format settings, ReFrames : 1 frame
Codec ID : avc1
Codec ID/Info : Advanced Video Coding
Duration : 1h 32mn
Bit rate mode : Variable
Bit rate : 764 Kbps
Width : 704 pixels
Height : 304 pixels
Display aspect ratio : 2.35:1
Frame rate mode : Constant
Frame rate : 29.970 fps
Resolution : 24 bits
Colorimetry : 4:2:0
Scan type : Progressive
Bits/(Pixel*Frame) : 0.119
Stream size : 507 MiB (83%)
................................................
Audio
ID : 2
Format : AAC
Format/Info : Advanced Audio Codec
Format version : Version 4
Format profile : LC
Format settings, SBR : No
Codec ID : 40
Duration : 1h 32mn
Bit rate mode : Variable
Bit rate : 152 Kbps
Channel(s) : 2 channels
Channel positions : L R
Sampling rate : 44.1 KHz
Resolution : 16 bits
Stream size : 101 MiB (17%)
................................................
Plot: 
A vacationing woman meets her ideal man, leading to a swift marriage. Back at home, however, their idyllic life is upset when they discover their neighbors could be assassins who have been contracted to kill the couple
...................................................
Screens 
http://postimg.com/image/17000/16215.jpg
.....................................................
.....................................................